PathFileType	4	(X/Y/Z)	/Users/itak/Documents/Research/Walk-IL/dataset/trc/00358_00011.trc
DataRate	CameraRate	NumFrames	NumMarkers	Units	OrigDataRate	OrigDataStartFrame	OrigNumFrames
100.000000	100.000000	4	53	mm	100.000000	219	586
Frame#	Time	RPSI			LPSI			L3			STRN			T10			C7			CLAV			RBAK			LBAK			LSHO			LUPA			LAEL			LAOL			LWTS			LWPS			LFRA			LIFD			LHPS			LHTS			RSHO			RUPA			RAEL			RAOL			RWTS			RWPS			RFRA			RIFD			RHTS			RHPS			RBHD			LFHD			RFHD			LBHD			LHIP			RHIP			RASI			LASI			LKNE			LTHI			LANK			LTIP			LTOE			LMT1			LMT5			LHEE			RKNE			RTHI			RANK			RTIP			RTOE			RMT1			RMT5			RHEE			
		X1	Y1	Z1	X2	Y2	Z2	X3	Y3	Z3	X4	Y4	Z4	X5	Y5	Z5	X6	Y6	Z6	X7	Y7	Z7	X8	Y8	Z8	X9	Y9	Z9	X10	Y10	Z10	X11	Y11	Z11	X12	Y12	Z12	X13	Y13	Z13	X14	Y14	Z14	X15	Y15	Z15	X16	Y16	Z16	X17	Y17	Z17	X18	Y18	Z18	X19	Y19	Z19	X20	Y20	Z20	X21	Y21	Z21	X22	Y22	Z22	X23	Y23	Z23	X24	Y24	Z24	X25	Y25	Z25	X26	Y26	Z26	X27	Y27	Z27	X28	Y28	Z28	X29	Y29	Z29	X30	Y30	Z30	X31	Y31	Z31	X32	Y32	Z32	X33	Y33	Z33	X34	Y34	Z34	X35	Y35	Z35	X36	Y36	Z36	X37	Y37	Z37	X38	Y38	Z38	X39	Y39	Z39	X40	Y40	Z40	X41	Y41	Z41	X42	Y42	Z42	X43	Y43	Z43	X44	Y44	Z44	X45	Y45	Z45	X46	Y46	Z46	X47	Y47	Z47	X48	Y48	Z48	X49	Y49	Z49	X50	Y50	Z50	X51	Y51	Z51	X52	Y52	Z52	X53	Y53	Z53	

220	2.19	-1141.425170898438	952.6566162109375	872.11962890625	-1138.58447265625	953.7918701171875	742.484619140625	-1143.016845703125	1022.243103027344	815.4781494140625	-885.7759399414062	1171.998291015625	800.5255126953125	-1135.587158203125	1137.683471679688	821.0297241210938	-1061.375366210938	1376.961547851562	786.2374267578125	-914.1746826171875	1301.30126953125	788.169677734375	-1123.099731445312	1250.541625976562	866.8759765625	-1084.31396484375	1335.1708984375	688.9356079101562	-1001.948547363281	1333.56640625	626.00634765625	-1056.988159179688	1218.481201171875	575.308837890625	-1104.46630859375	1020.511596679688	585.57763671875	-1150.020263671875	1028.7021484375	656.2701416015625	-1077.972778320312	761.3427734375	632.4474487304688	-1133.1552734375	761.7738647460938	588.227783203125	-1123.707641601562	916.6474609375	585.7694091796875	-1130.720458984375	606.6755981445312	650.0838012695312	-1157.094360351562	697.3108520507812	602.4496459960938	-1098.285888671875	682.0184936523438	623.6942749023438	-996.2548217773438	1368.369506835938	947.3831787109375	-1010.907165527344	1310.921020507812	1016.830993652344	-1026.306640625	1050.031372070312	1088.260498046875	-1071.8203125	1035.872314453125	1006.708740234375	-933.9053344726562	810.4705810546875	1060.797973632812	-962.8707885742188	806.252685546875	1130.47607421875	-1005.708740234375	981.6063232421875	1104.052001953125	-927.8671875	641.324951171875	1089.085571289062	-907.2833862304688	712.0665893554688	1084.465209960938	-951.093994140625	722.2133178710938	1136.620849609375	-1004.577209472656	1572.705932617188	856.695556640625	-849.9213256835938	1578.004760742188	718.3365478515625	-847.0672607421875	1582.3056640625	819.333984375	-1035.838134765625	1562.994018554688	716.0241088867188	-1041.64208984375	903.6424560546875	640.87939453125	-1073.80224609375	884.5308227539062	980.8839111328125	-964.3512573242188	905.5778198242188	952.7136840820312	-931.5599365234375	918.1065063476562	716.3287963867188	-827.8984375	481.7077331542969	649.173828125	-889.474853515625	604.6203002929688	634.6282958984375	-742.2661743164062	59.9865837097168	635.2237548828125	-779.9125366210938	267.3636779785156	627.8915405273438	-553.895751953125	128.5014495849609	704.0863647460938	-612.9622192382812	89.15837860107422	741.4166259765625	-623.102783203125	98.16532897949219	628.3303833007812	-776.88330078125	44.35081481933594	700.9965209960938	-1132.388793945312	433.877197265625	954.5013427734375	-1040.194091796875	675.4331665039062	983.1610107421875	-1330.531127929688	64.62325286865234	917.6663818359375	-1163.567993164062	316.2242736816406	937.112060546875	-1138.246459960938	45.23078155517578	885.3560791015625	-1187.963256835938	39.8090934753418	837.729736328125	-1235.424682617188	42.30410003662109	946.4938354492188	-1377.56005859375	73.62085723876953	866.6845703125	
221	2.2	-1134.787719726562	951.4984741210938	870.3952026367188	-1131.78955078125	952.2378540039062	740.8343505859375	-1136.164184570312	1020.730651855469	813.7996826171875	-879.203125	1170.755004882812	799.0943603515625	-1128.980346679688	1136.319091796875	819.1026611328125	-1054.819946289062	1375.5869140625	784.4568481445312	-907.6025390625	1300.08447265625	786.738037109375	-1116.629150390625	1249.080444335938	864.9817504882812	-1077.508056640625	1333.83935546875	687.0870361328125	-994.9555053710938	1332.318481445312	624.3341064453125	-1049.715942382812	1217.120239257812	573.582763671875	-1097.129516601562	1019.097045898438	583.8362426757812	-1142.7373046875	1027.2958984375	654.5027465820312	-1070.966918945312	759.8743896484375	630.5328979492188	-1126.085083007812	760.4698486328125	586.3271484375	-1116.406127929688	915.2920532226562	583.9617309570312	-1124.352294921875	605.2042236328125	648.3494262695312	-1150.222412109375	695.9942016601562	600.563720703125	-1091.400634765625	680.6701049804688	621.8466186523438	-990.0177612304688	1367.02880859375	945.7969360351562	-1004.691711425781	1309.455322265625	1015.205139160156	-1018.685302734375	1048.525146484375	1086.77587890625	-1064.021118164062	1033.998657226562	1005.169372558594	-924.7174072265625	809.629150390625	1059.783569335938	-954.0487670898438	805.2153930664062	1129.404052734375	-997.7073364257812	980.1471557617188	1102.57763671875	-918.0286254882812	640.39599609375	1088.427978515625	-897.5011596679688	711.535400390625	1083.79541015625	-941.8519897460938	721.2861938476562	1135.786499023438	-998.0546264648438	1571.480712890625	855.2626342773438	-843.2672119140625	1576.801513671875	717.0330810546875	-840.4993896484375	1581.024780273438	818.058349609375	-1029.208984375	1561.873657226562	714.5980224609375	-1034.28076171875	902.0810546875	639.2406616210938	-1067.265502929688	883.5770874023438	979.32470703125	-957.9280395507812	904.6153564453125	951.4865112304688	-924.640625	916.552734375	715.07080078125	-820.4357299804688	480.4946899414062	648.3736572265625	-882.55859375	602.8200073242188	633.2440185546875	-731.7022705078125	59.55083847045898	635.6057739257812	-770.826171875	266.5677795410156	627.7213134765625	-543.9144897460938	129.4066162109375	703.9583740234375	-602.5513916015625	89.56309509277344	741.4708862304688	-613.0029907226562	98.33156585693359	628.3991088867188	-766.2967529296875	43.78686904907227	701.4685668945312	-1128.722534179688	433.7387390136719	954.1469116210938	-1034.898193359375	674.8211059570312	982.3903198242188	-1330.071899414062	66.10952758789062	917.919921875	-1160.865112304688	316.3895568847656	937.0679931640625	-1138.204223632812	45.26066207885742	885.4564819335938	-1187.912109375	40.05943298339844	837.812255859375	-1235.078857421875	42.57624053955078	946.6942749023438	-1377.066284179688	75.71670532226562	867.075439453125	
222	2.21	-1127.965454101562	950.38720703125	868.5969848632812	-1124.82470703125	950.7166137695312	739.1162109375	-1129.158935546875	1019.266662597656	812.0135498046875	-872.4451904296875	1169.634521484375	797.5662231445312	-1122.17333984375	1134.999145507812	817.022216796875	-1048.131225585938	1374.306884765625	782.54833984375	-900.8670043945312	1298.980346679688	785.1844482421875	-1110.004028320312	1247.69873046875	862.954345703125	-1070.542358398438	1332.600341796875	685.1082153320312	-987.7952880859375	1331.173950195312	622.5409545898438	-1042.216186523438	1215.84423828125	571.7048950195312	-1089.469970703125	1017.742797851562	581.8897705078125	-1135.189575195312	1025.918212890625	652.4889526367188	-1063.549560546875	758.4491577148438	628.40380859375	-1118.558471679688	759.2233276367188	584.1699829101562	-1108.729248046875	913.9720458984375	581.9198608398438	-1117.3994140625	603.7999877929688	646.288818359375	-1142.846069335938	694.7003173828125	598.437255859375	-1084.0263671875	679.3893432617188	619.7573852539062	-983.6629638671875	1365.7822265625	944.0855712890625	-998.3355712890625	1308.079345703125	1013.443420410156	-1010.939208984375	1047.091552734375	1085.052856445312	-1056.048217773438	1032.21826171875	1003.369934082031	-915.2562255859375	808.9937744140625	1058.581787109375	-945.1298828125	804.2387084960938	1128.109619140625	-989.5792846679688	978.765380859375	1100.861083984375	-908.0997924804688	639.5515747070312	1087.561401367188	-887.4678955078125	711.1785888671875	1082.947021484375	-932.5364990234375	720.4414672851562	1134.7412109375	-991.4131469726562	1570.378784179688	853.7293090820312	-836.466552734375	1575.675903320312	715.6387329101562	-833.7813110351562	1579.822021484375	816.6719970703125	-1022.433959960938	1560.84912109375	713.0530395507812	-1026.531372070312	900.7034301757812	637.4055786132812	-1060.55859375	882.7381591796875	977.7344360351562	-951.3198852539062	903.7401733398438	950.147216796875	-917.4989013671875	915.1483154296875	713.6964721679688	-812.5142211914062	479.4662780761719	647.5628662109375	-875.1123657226562	601.3780517578125	631.8561401367188	-722.8787841796875	58.78038787841797	635.9362182617188	-762.2921752929688	265.5684204101562	627.58154296875	-535.232666015625	129.0884399414062	703.6568603515625	-593.5894165039062	89.04956817626953	741.3836669921875	-604.4364624023438	97.64116668701172	628.3575439453125	-757.3756103515625	43.04323196411133	701.9789428710938	-1124.741943359375	433.7088012695312	953.7664794921875	-1029.364868164062	674.3392333984375	981.5917358398438	-1329.517456054688	67.81156921386719	918.2147827148438	-1157.925659179688	316.6817321777344	937.0374755859375	-1138.1474609375	45.29208755493164	885.5648193359375	-1187.820434570312	40.35687637329102	837.9188232421875	-1234.673461914062	42.90010833740234	946.9318237304688	-1376.459838867188	78.08450317382812	867.513427734375	
223	2.22	-1120.933349609375	949.3372192382812	866.6963500976562	-1117.65576171875	949.2410278320312	737.30029296875	-1121.9892578125	1017.862060546875	810.1019897460938	-865.4859619140625	1168.645263671875	795.9392700195312	-1115.163452148438	1133.734252929688	814.790283203125	-1041.307983398438	1373.132202148438	780.5155029296875	-893.9596557617188	1297.9970703125	783.5004272460938	-1103.212158203125	1246.405151367188	860.7943115234375	-1063.418090820312	1331.4609375	683.0022583007812	-980.4733276367188	1330.141235351562	620.626953125	-1034.501831054688	1214.661743164062	569.6715087890625	-1081.495361328125	1016.462707519531	579.7388305664062	-1127.384521484375	1024.575439453125	650.2266235351562	-1055.703247070312	757.0927124023438	626.0651245117188	-1110.572021484375	758.0376586914062	581.7506103515625	-1100.68408203125	912.702392578125	579.6519775390625	-1109.8173828125	602.491455078125	643.8754272460938	-1134.952514648438	693.4495239257812	596.05859375	-1076.162719726562	678.1707153320312	617.4227905273438	-977.1804809570312	1364.630615234375	942.2445678710938	-991.8278198242188	1306.801879882812	1011.542907714844	-1003.081665039062	1045.74560546875	1083.0986328125	-1047.919189453125	1030.546752929688	1001.3251953125	-905.5897216796875	808.5239868164062	1057.170288085938	-936.119873046875	803.3345947265625	1126.597045898438	-981.3410034179688	977.4735717773438	1098.915893554688	-898.068603515625	638.8179931640625	1086.47705078125	-877.2262573242188	710.97900390625	1081.897094726562	-923.1395874023438	719.6824340820312	1133.463989257812	-984.656494140625	1569.40625	852.0987548828125	-829.5306396484375	1574.639282226562	714.1494140625	-826.9192504882812	1578.70849609375	815.174560546875	-1015.518188476562	1559.930541992188	711.3869018554688	-1018.369323730469	899.513916015625	635.3720092773438	-1053.722534179688	882.0531005859375	976.138671875	-944.50244140625	902.96337890625	948.6956176757812	-910.0941162109375	913.8975219726562	712.2130737304688	-804.1716918945312	478.5863037109375	646.764404296875	-867.1420288085938	600.2786254882812	630.4920043945312	-715.74169921875	57.64484405517578	636.2133178710938	-754.319091796875	264.3641052246094	627.47216796875	-527.7996826171875	127.5983428955078	703.2232666015625	-586.0223999023438	87.63545989990234	741.179443359375	-597.3257446289062	96.12445831298828	628.2203369140625	-750.0684814453125	42.09967041015625	702.49853515625	-1120.41455078125	433.8009033203125	953.379150390625	-1023.622131347656	674.023681640625	980.7979125976562	-1328.83740234375	69.73572540283203	918.5719604492188	-1154.723754882812	317.1068725585938	937.0333251953125	-1138.074951171875	45.33349990844727	885.68359375	-1187.682495117188	40.71220016479492	838.0440673828125	-1234.20263671875	43.28047561645508	947.2172241210938	-1375.708740234375	80.75535583496094	868.0039672851562	
